<?xml version="1.0" standalone="no"?>
<!DOCTYPE svg PUBLIC "-//W3C//DTD SVG 20010904//EN"
 "http://www.w3.org/TR/2001/REC-SVG-20010904/DTD/svg10.dtd">
<svg version="1.0" xmlns="http://www.w3.org/2000/svg"
 width="257.000000pt" height="59.000000pt" viewBox="0 0 257.000000 59.000000"
 preserveAspectRatio="xMidYMid meet">

<g transform="translate(0.000000,59.000000) scale(0.100000,-0.100000)"
fill="#000000" stroke="none">
<path d="M296 413 c-9 -39 -42 -83 -62 -83 -8 0 -23 6 -34 13 -17 10 -22 9
-29 -1 -4 -8 -11 -13 -15 -13 -3 1 -14 1 -23 0 -14 0 -13 -3 5 -11 14 -7 29
-30 40 -61 18 -52 50 -92 81 -100 14 -3 17 1 14 17 -4 27 2 35 55 69 29 19 42
34 41 50 0 12 -3 16 -6 9 -3 -7 -19 -20 -36 -29 l-32 -16 33 31 c32 30 44 83
22 97 -5 3 -10 -2 -10 -12 0 -11 -19 -37 -41 -58 -23 -22 -47 -53 -55 -70 -12
-27 -13 -28 -14 -7 0 13 18 42 43 70 53 57 58 70 42 107 l-12 30 -7 -32z"/>
<path d="M432 338 c-43 -54 0 -130 64 -114 19 5 24 13 24 36 0 20 -5 30 -15
30 -8 0 -15 -9 -15 -20 0 -24 -22 -26 -40 -5 -21 25 4 69 35 62 17 -3 25 0 25
9 0 18 -64 19 -78 2z"/>
<path d="M561 299 c-24 -55 -21 -100 3 -66 7 9 23 17 34 17 12 0 25 -8 31 -17
6 -12 13 -15 20 -8 13 14 -30 119 -51 123 -10 2 -23 -14 -37 -49z m49 -21 c0
-5 -7 -8 -15 -8 -17 0 -18 2 -9 25 5 13 8 14 15 3 5 -7 9 -16 9 -20z"/>
<path d="M674 337 c-9 -25 0 -110 14 -115 7 -2 12 6 12 22 0 33 13 33 35 0 12
-19 20 -23 28 -15 7 7 7 14 -2 25 -10 11 -9 19 1 35 9 16 10 26 2 39 -14 22
-82 29 -90 9z m62 -18 c10 -17 -13 -36 -27 -22 -12 12 -4 33 11 33 5 0 12 -5
16 -11z"/>
<path d="M790 301 c0 -70 31 -97 81 -71 15 9 19 22 19 65 0 30 -4 55 -10 55
-5 0 -10 -17 -10 -37 0 -46 -13 -68 -34 -60 -11 5 -16 19 -16 52 0 33 -4 45
-15 45 -11 0 -15 -12 -15 -49z"/>
<path d="M922 288 l3 -63 39 1 c45 2 66 23 66 64 0 37 -29 60 -74 60 l-37 0 3
-62z m68 28 c18 -23 8 -61 -17 -64 -21 -3 -23 1 -23 37 0 43 17 54 40 27z"/>
<path d="M1060 290 c-23 -60 -20 -91 4 -57 17 22 62 22 70 0 5 -11 10 -13 17
-6 6 6 2 29 -12 66 -29 77 -49 76 -79 -3z m50 -6 c0 -8 -4 -14 -10 -14 -5 0
-10 9 -10 21 0 11 5 17 10 14 6 -3 10 -13 10 -21z"/>
<path d="M1227 343 c-15 -14 -6 -23 18 -17 33 8 33 -15 0 -46 -38 -36 -33 -56
15 -57 28 0 40 4 40 13 0 8 -11 14 -27 14 l-26 0 20 23 c29 32 34 43 27 61 -6
16 -54 22 -67 9z"/>
<path d="M1348 339 c-22 -12 -24 -41 -3 -33 12 5 15 -3 15 -40 0 -25 5 -46 10
-46 6 0 10 28 10 65 0 67 -3 72 -32 54z"/>
<path d="M1472 333 c-13 -25 -4 -43 24 -53 31 -12 31 -30 0 -30 -14 0 -28 -4
-31 -10 -8 -13 38 -24 65 -15 31 10 23 56 -13 73 -30 14 -27 37 4 29 12 -3 19
0 19 9 0 21 -57 18 -68 -3z"/>
<path d="M1575 296 c-4 -30 -4 -59 0 -65 12 -20 25 -1 26 37 l1 37 14 -32 c8
-18 19 -33 25 -33 5 0 16 15 24 33 l13 32 4 -39 c4 -56 28 -60 28 -4 0 92 -26
117 -53 51 l-15 -38 -15 38 c-23 55 -44 48 -52 -17z"/>
<path d="M1750 296 c-25 -62 -24 -88 2 -62 22 21 54 20 67 -1 6 -12 13 -15 20
-8 13 14 -30 119 -51 123 -10 2 -22 -14 -38 -52z m50 -13 c0 -7 -7 -13 -16
-13 -11 0 -14 5 -10 16 3 9 6 21 6 27 0 16 20 -14 20 -30z"/>
<path d="M1870 285 c0 -72 17 -90 22 -22 l3 42 29 -42 c16 -24 33 -43 37 -43
5 0 9 29 9 65 0 51 -3 65 -15 65 -10 0 -15 -10 -15 -31 l0 -31 -26 31 c-14 17
-30 31 -35 31 -5 0 -9 -29 -9 -65z"/>
<path d="M2007 343 c-17 -16 -6 -54 18 -63 14 -5 25 -14 25 -20 0 -5 -11 -10
-25 -10 -14 0 -25 -5 -25 -10 0 -27 73 -23 84 5 8 22 -2 41 -30 53 -30 14 -32
34 -2 30 11 -2 23 3 25 10 5 13 -58 18 -70 5z"/>
<path d="M2122 299 c-12 -28 -22 -58 -22 -65 0 -19 19 -18 26 1 8 21 51 19 63
-2 6 -12 13 -15 20 -8 14 14 -29 119 -50 123 -11 2 -23 -13 -37 -49z m48 -16
c0 -7 -7 -13 -16 -13 -11 0 -14 5 -10 16 3 9 6 21 6 27 0 16 20 -14 20 -30z"/>
<path d="M2240 284 c0 -48 3 -65 13 -62 6 3 13 14 15 25 2 14 13 23 33 27 22
4 29 11 29 29 0 32 -18 47 -57 47 l-33 0 0 -66z m58 23 c2 -10 -3 -17 -12 -17
-10 0 -16 9 -16 21 0 24 23 21 28 -4z"/>
<path d="M2351 289 c-23 -60 -21 -90 3 -56 7 9 23 17 36 17 13 0 29 -8 36 -17
24 -34 27 -3 4 57 -30 79 -48 79 -79 -1z m49 1 c0 -11 -4 -20 -10 -20 -5 0
-10 9 -10 20 0 11 5 20 10 20 6 0 10 -9 10 -20z"/>
</g>
</svg>
